<svg xmlns="http://www.w3.org/2000/svg" width="354" height="283.2" viewBox="0 0 354 283.2">
  <g id="bx-image" transform="translate(-1.999 -4)" opacity="0.38">
    <ellipse id="Ellipse_15" data-name="Ellipse 15" cx="26.83" cy="26.43" rx="26.83" ry="26.43" transform="translate(72.479 75.12)" fill="#fff"/>
    <path id="Pfad_3" data-name="Pfad 3" d="M85.649,80.8,59.1,45.4,6,116.2H218.4L138.749,10Z" transform="translate(66.8 100.2)" fill="#fff"/>
    <path id="Pfad_4" data-name="Pfad 4" d="M320.6,4H37.4A35.436,35.436,0,0,0,2,39.4V251.8a35.436,35.436,0,0,0,35.4,35.4H320.6A35.436,35.436,0,0,0,356,251.8V39.4A35.436,35.436,0,0,0,320.6,4ZM37.4,251.8V39.4H320.6l.035,212.4Z" fill="#fff"/>
  </g>
</svg>
