<svg xmlns="http://www.w3.org/2000/svg" width="29.948" height="29.456" viewBox="0 0 29.948 29.456">
<defs><style>.a{fill:#24292e;fill-rule:evenodd;}</style></defs>
<path class="a" d="M17.026,2a15.12,15.12,0,0,0-4.734,29.431c.749.136,1.019-.329,1.019-.728,0-.359-.012-1.31-.017-2.568-4.166.911-5.046-2.026-5.046-2.026A3.981,3.981,0,0,0,6.587,23.9c-1.359-.937.1-.916.1-.916A3.139,3.139,0,0,1,8.984,24.54,3.173,3.173,0,0,0,13.34,25.8a3.248,3.248,0,0,1,.953-2.02C10.97,23.4,7.475,22.1,7.475,16.312a5.879,5.879,0,0,1,1.537-4.05,5.474,5.474,0,0,1,.149-4s1.257-.407,4.117,1.546a14.056,14.056,0,0,1,7.495,0c2.861-1.955,4.117-1.546,4.117-1.546a5.449,5.449,0,0,1,.149,4,5.842,5.842,0,0,1,1.537,4.05c0,5.8-3.5,7.078-6.834,7.452a3.635,3.635,0,0,1,1.013,2.795c0,2.02-.018,3.649-.018,4.144,0,.4.267.874,1.031.725A15.12,15.12,0,0,0,17.026,2Z" transform="translate(-2.052 -2)"/></svg>