<svg xmlns="http://www.w3.org/2000/svg" width="25.706" height="25.746" viewBox="0 0 25.706 25.746"><defs><style>.a{fill:#fffffe;}</style></defs><path class="a" d="M13.975,7.377a6.6,6.6,0,1,0,6.6,6.6,6.6,6.6,0,0,0-6.6-6.6Zm0,10.887a4.287,4.287,0,1,1,4.285-4.287,4.288,4.288,0,0,1-4.285,4.287Z" transform="translate(-1.132 -1.136)"/><circle class="a" cx="1.539" cy="1.539" r="1.539" transform="translate(18.166 4.459)"/><path class="a" d="M28.027,7.439a6.574,6.574,0,0,0-3.759-3.757,9.431,9.431,0,0,0-3.12-.6c-1.375-.06-1.81-.077-5.3-.077s-3.933,0-5.3.077a9.356,9.356,0,0,0-3.118.6A6.566,6.566,0,0,0,3.68,7.439a9.4,9.4,0,0,0-.6,3.12c-.061,1.373-.08,1.809-.08,5.3s0,3.93.08,5.3a9.415,9.415,0,0,0,.6,3.122A6.58,6.58,0,0,0,7.44,28.03a9.4,9.4,0,0,0,3.119.642c1.375.06,1.81.079,5.3.079s3.933,0,5.3-.079a9.443,9.443,0,0,0,3.12-.6,6.584,6.584,0,0,0,3.759-3.759,9.4,9.4,0,0,0,.6-3.12c.061-1.373.08-1.809.08-5.3s0-3.93-.08-5.3A9.394,9.394,0,0,0,28.027,7.439ZM26.288,21.045a7.2,7.2,0,0,1-.444,2.41A4.264,4.264,0,0,1,23.4,25.9a7.116,7.116,0,0,1-2.384.444c-1.356.063-1.739.079-5.216.079s-3.836,0-5.217-.079A7.079,7.079,0,0,1,8.2,25.9a4.26,4.26,0,0,1-2.454-2.442A7.253,7.253,0,0,1,5.3,21.073c-.061-1.356-.076-1.739-.076-5.216s0-3.834.076-5.217a7.191,7.191,0,0,1,.444-2.408A4.263,4.263,0,0,1,8.2,5.787a7.151,7.151,0,0,1,2.382-.444c1.358-.061,1.739-.079,5.217-.079s3.836,0,5.216.079a7.081,7.081,0,0,1,2.384.444,4.27,4.27,0,0,1,2.444,2.444,7.253,7.253,0,0,1,.444,2.382c.061,1.358.077,1.739.077,5.217s0,3.851-.061,5.216h-.016Z" transform="translate(-3.002 -3.005)"/></svg>